<svg width="1600" height="900" viewBox="0 0 1600 900" fill="none" xmlns="http://www.w3.org/2000/svg">
  <rect width="1600" height="900" rx="48" fill="#0F172A"/>
  <rect x="58" y="58" width="1484" height="784" rx="36" fill="url(#paint0_linear)"/>
  <circle cx="1270" cy="220" r="138" fill="#F59E0B" fill-opacity="0.18"/>
  <circle cx="1360" cy="730" r="178" fill="#FB7185" fill-opacity="0.14"/>
  <rect x="180" y="210" width="240" height="300" rx="28" fill="#FFFFFF" fill-opacity="0.08"/>
  <rect x="210" y="250" width="180" height="22" rx="11" fill="#F8FAFC" fill-opacity="0.9"/>
  <rect x="210" y="295" width="135" height="18" rx="9" fill="#CBD5E1" fill-opacity="0.8"/>
  <rect x="210" y="338" width="110" height="110" rx="24" fill="#F59E0B"/>
  <path d="M255 360H313L327 403H241L255 360Z" fill="#7C2D12"/>
  <circle cx="262" cy="423" r="14" fill="#1E293B"/>
  <circle cx="307" cy="423" r="14" fill="#1E293B"/>
  <rect x="500" y="220" width="690" height="380" rx="34" fill="#FFFFFF" fill-opacity="0.12"/>
  <rect x="540" y="270" width="610" height="28" rx="14" fill="#F8FAFC" fill-opacity="0.9"/>
  <rect x="540" y="322" width="420" height="18" rx="9" fill="#CBD5E1" fill-opacity="0.8"/>
  <rect x="540" y="380" width="160" height="160" rx="28" fill="#FFFFFF" fill-opacity="0.14"/>
  <rect x="730" y="380" width="160" height="160" rx="28" fill="#FFFFFF" fill-opacity="0.14"/>
  <rect x="920" y="380" width="160" height="160" rx="28" fill="#FFFFFF" fill-opacity="0.14"/>
  <circle cx="620" cy="460" r="38" fill="#F59E0B"/>
  <path d="M602 460H638" stroke="#7C2D12" stroke-width="10" stroke-linecap="round"/>
  <path d="M620 442V478" stroke="#7C2D12" stroke-width="10" stroke-linecap="round"/>
  <path d="M792 442C770 442 752 460 752 482C752 504 770 522 792 522C814 522 832 504 832 482C832 460 814 442 792 442Z" fill="#FB7185"/>
  <path d="M968 430H1032L1045 470H955L968 430Z" fill="#E2E8F0"/>
  <circle cx="978" cy="492" r="12" fill="#0F172A"/>
  <circle cx="1022" cy="492" r="12" fill="#0F172A"/>
  <defs>
    <linearGradient id="paint0_linear" x1="126" y1="110" x2="1480" y2="808" gradientUnits="userSpaceOnUse">
      <stop stop-color="#1D4ED8"/>
      <stop offset="1" stop-color="#7C3AED"/>
    </linearGradient>
  </defs>
</svg>
