<svg width="1600" height="900" viewBox="0 0 1600 900" fill="none" xmlns="http://www.w3.org/2000/svg">
  <rect width="1600" height="900" rx="48" fill="#040B07"/>
  <rect x="58" y="58" width="1484" height="784" rx="36" fill="url(#paint0_linear)"/>
  <circle cx="1305" cy="230" r="150" fill="#1ED760" fill-opacity="0.18"/>
  <circle cx="1360" cy="700" r="190" fill="#22D3EE" fill-opacity="0.12"/>
  <rect x="170" y="190" width="300" height="420" rx="34" fill="#FFFFFF" fill-opacity="0.08"/>
  <circle cx="320" cy="320" r="88" fill="#1ED760"/>
  <path d="M273 305C316 285 355 289 389 306" stroke="#052E16" stroke-width="12" stroke-linecap="round"/>
  <path d="M281 335C316 318 348 321 376 335" stroke="#052E16" stroke-width="12" stroke-linecap="round"/>
  <path d="M289 365C315 353 341 354 364 365" stroke="#052E16" stroke-width="12" stroke-linecap="round"/>
  <rect x="215" y="445" width="180" height="18" rx="9" fill="#F8FAFC" fill-opacity="0.9"/>
  <rect x="215" y="485" width="130" height="16" rx="8" fill="#CBD5E1" fill-opacity="0.8"/>
  <rect x="530" y="210" width="690" height="400" rx="34" fill="#FFFFFF" fill-opacity="0.1"/>
  <rect x="575" y="255" width="610" height="28" rx="14" fill="#F8FAFC" fill-opacity="0.92"/>
  <rect x="575" y="308" width="340" height="18" rx="9" fill="#D1FAE5" fill-opacity="0.84"/>
  <rect x="575" y="390" width="250" height="165" rx="28" fill="#FFFFFF" fill-opacity="0.12"/>
  <rect x="850" y="390" width="140" height="165" rx="28" fill="#FFFFFF" fill-opacity="0.12"/>
  <rect x="1015" y="390" width="140" height="165" rx="28" fill="#FFFFFF" fill-opacity="0.12"/>
  <circle cx="700" cy="472" r="48" fill="#1ED760"/>
  <path d="M680 472L720 447V497L680 472Z" fill="#052E16"/>
  <rect x="893" y="430" width="54" height="85" rx="14" fill="#22D3EE"/>
  <rect x="1058" y="420" width="54" height="95" rx="14" fill="#A78BFA"/>
  <defs>
    <linearGradient id="paint0_linear" x1="112" y1="108" x2="1488" y2="814" gradientUnits="userSpaceOnUse">
      <stop stop-color="#111827"/>
      <stop offset="1" stop-color="#064E3B"/>
    </linearGradient>
  </defs>
</svg>
