<svg width="128" height="128" viewBox="0 0 128 128" fill="none" xmlns="http://www.w3.org/2000/svg">
  <rect width="128" height="128" rx="24" fill="#3178C6"/>
  <path d="M26 37H102V49H71V93H57V49H26V37Z" fill="white"/>
  <path d="M80 67C83.4 63.7 88 61.9 93.2 61.9C97.9 61.9 102.1 63.2 105.8 65.8V78.4C102.1 74.9 98.2 73.2 94 73.2C92.3 73.2 90.9 73.6 89.8 74.3C88.7 75.1 88.1 76 88.1 77.2C88.1 78.5 88.8 79.5 90.2 80.2C91.6 80.9 93.7 81.7 96.4 82.5C99.1 83.3 101.2 84.1 102.7 84.9C104.1 85.7 105.4 86.9 106.4 88.4C107.5 89.9 108 91.9 108 94.3C108 99 106.3 102.8 102.8 105.5C99.4 108.2 94.9 109.6 89.4 109.6C83.2 109.6 77.9 107.9 73.5 104.4V91.1C78 95.8 82.9 98.2 88.2 98.2C89.9 98.2 91.3 97.8 92.5 97C93.6 96.2 94.2 95.2 94.2 93.9C94.2 92.6 93.5 91.6 92.1 90.8C90.8 90 88.7 89.2 85.9 88.3C83.2 87.5 81 86.7 79.5 85.9C78 85.1 76.8 84 75.8 82.5C74.8 81 74.3 79.1 74.3 76.8C74.3 72.9 76.2 69.6 80 67Z" fill="white"/>
</svg>
